<svg width="76" height="76" viewBox="0 0 76 76" fill="none" xmlns="http://www.w3.org/2000/svg">
<path d="M40.185 38.1901C39.6032 38.7152 38.8472 39.0059 38.0634 39.0059C37.2796 39.0059 36.5236 38.7152 35.9417 38.1901L9.08838 13.7751C10.1421 13.0533 11.3895 12.6669 12.6667 12.6667H63.3334C64.6106 12.6669 65.858 13.0533 66.9117 13.7751L40.185 38.1901Z" fill="#C7B6AE"/>
<path d="M69.6666 19.8232V53.8332C69.6666 56.3528 68.6657 58.7692 66.8841 60.5508C65.1025 62.3324 62.6861 63.3332 60.1666 63.3332H15.8333C13.3137 63.3332 10.8973 62.3324 9.11574 60.5508C7.33414 58.7692 6.33325 56.3528 6.33325 53.8332V19.8232L33.8199 44.9032C34.9791 45.91 36.4646 46.4615 37.9999 46.4549C39.5544 46.4517 41.0535 45.8769 42.2116 44.8399L69.6666 19.8232Z" fill="#C7B6AE"/>
</svg>
