<svg width="90" height="90" viewBox="0 0 90 90" fill="none" xmlns="http://www.w3.org/2000/svg">
<path d="M24.9308 65.6733L53.8552 72.1854C55.6845 72.5972 57.5053 71.4456 57.9171 69.6164L66.3532 32.1461C66.765 30.3169 65.6134 28.496 63.7842 28.0842L59.5256 27.1254L60.2109 24.0815C60.3428 23.4956 59.9663 22.9003 59.3804 22.7684C58.7945 22.6365 58.1992 23.0129 58.0673 23.5989L57.382 26.6428L50.3938 25.0695L51.0791 22.0255C51.211 21.4396 50.8345 20.8443 50.2486 20.7124C49.6627 20.5805 49.0674 20.957 48.9355 21.5429L48.2502 24.5869L41.262 23.0135L41.9473 19.9696C42.0792 19.3837 41.7028 18.7884 41.1168 18.6565C40.5309 18.5246 39.9356 18.9011 39.8037 19.487L39.1184 22.5309L34.8598 21.5721C33.0306 21.1603 31.2097 22.3119 30.7979 24.1411L22.365 61.5971C21.9532 63.4263 23.1016 65.2615 24.9308 65.6733ZM32.9415 24.6238C33.0863 23.9807 33.7341 23.571 34.3772 23.7157L38.6358 24.6745L37.9441 27.747C37.8121 28.333 38.1886 28.9282 38.7746 29.0602C39.3605 29.1921 39.9558 28.8156 40.0877 28.2297L40.7794 25.1571L47.7676 26.7305L47.0758 29.803C46.9439 30.3889 47.3204 30.9842 47.9063 31.1161C48.4922 31.248 49.0875 30.8715 49.2194 30.2856L49.9112 27.2131L56.8993 28.7864L56.2076 31.8589C56.0757 32.4448 56.4522 33.0401 57.0381 33.172C57.624 33.3039 58.2193 32.9274 58.3512 32.3415L59.043 29.269L63.3016 30.2278C63.9447 30.3726 64.3544 31.0204 64.2096 31.6635L55.7767 69.1195C55.632 69.7626 54.9842 70.1723 54.3411 70.0275L25.4166 63.5154C24.7736 63.3706 24.3639 62.7228 24.5086 62.0797L32.9415 24.6238Z" fill="#E4DCD9"/>
<path d="M35.4089 37.2064C35.575 37.469 35.824 37.6302 36.0955 37.6913C36.367 37.7524 36.6611 37.7135 36.9237 37.5474L41.5634 34.613C42.0711 34.2919 42.2255 33.6059 41.9044 33.0982C41.5833 32.5905 40.8973 32.436 40.3896 32.7572L36.6779 35.1047L35.8252 33.7566C35.5041 33.2488 34.8181 33.0944 34.3104 33.4155C33.8027 33.7366 33.6482 34.4226 33.9694 34.9303L35.4089 37.2064Z" fill="#E4DCD9"/>
<path d="M43.7974 37.4283L58.0453 40.636C58.6312 40.7679 59.2265 40.3914 59.3584 39.8055C59.4903 39.2196 59.1138 38.6243 58.5279 38.4924L44.2801 35.2846C43.6941 35.1527 43.0989 35.5292 42.9669 36.1151C42.835 36.7011 43.2115 37.2963 43.7974 37.4283Z" fill="#E4DCD9"/>
<path d="M33.1696 47.1527C33.3357 47.4153 33.5847 47.5765 33.8562 47.6376C34.1278 47.6987 34.4218 47.6598 34.6844 47.4937L39.3241 44.5593C39.8318 44.2382 39.9863 43.5522 39.6651 43.0445C39.344 42.5368 38.6581 42.3823 38.1503 42.7034L34.4418 45.0367L33.5892 43.6886C33.2681 43.1808 32.5821 43.0264 32.0744 43.3475C31.5666 43.6686 31.4122 44.3546 31.7333 44.8623L33.1696 47.1527Z" fill="#E4DCD9"/>
<path d="M41.5582 47.3747L55.806 50.5824C56.392 50.7143 56.9872 50.3379 57.1192 49.7519C57.2511 49.166 56.8746 48.5707 56.2887 48.4388L42.0408 45.2311C41.4549 45.0991 40.8596 45.4756 40.7277 46.0616C40.5958 46.6475 40.9723 47.2427 41.5582 47.3747Z" fill="#E4DCD9"/>
<path d="M30.9335 57.0848C31.0996 57.3474 31.3486 57.5086 31.6202 57.5697C31.8917 57.6309 32.1857 57.592 32.4484 57.4259L37.088 54.4914C37.5958 54.1703 37.7502 53.4844 37.4291 52.9766C37.1079 52.4689 36.422 52.3144 35.9142 52.6356L32.2025 54.9831L31.3499 53.635C31.0287 53.1272 30.3428 52.9728 29.8351 53.2939C29.3273 53.6151 29.1729 54.301 29.494 54.8088L30.9335 57.0848Z" fill="#E4DCD9"/>
<path d="M39.3189 57.321L53.5668 60.5287C54.1527 60.6606 54.748 60.2841 54.8799 59.6982C55.0118 59.1123 54.6353 58.517 54.0494 58.3851L39.8015 55.1773C39.2156 55.0454 38.6203 55.4219 38.4884 56.0078C38.3565 56.5938 38.733 57.189 39.3189 57.321Z" fill="#E4DCD9"/>
</svg>
