<svg width="1920" height="312" viewBox="0 0 1920 312" fill="none" xmlns="http://www.w3.org/2000/svg">
<path fill-rule="evenodd" clip-rule="evenodd" d="M697.895 32.9028C602.518 46.9306 512.48 60.1732 416 60.1732C161 60.1732 0 12.6548 0 12.6548V125.123L0.000366211 424.479C0.000366211 424.479 328 385.958 695 424.479C952.495 451.506 988.468 448.913 1124.13 439.132C1181.82 434.972 1257.54 429.513 1376 424.479C1773 407.608 1920 463 1920 463V125.123V119.123V0C1871.75 0 1826.83 5.65974 1776.13 12.0482C1665.03 26.048 1526.15 43.5475 1263.5 12.6548C1025.72 -15.3131 854.602 9.85466 697.895 32.9028Z" fill="#091638"/>
</svg>
