<svg width="1920" height="1190" viewBox="0 0 1920 1190" fill="none" xmlns="http://www.w3.org/2000/svg">
<path d="M-190.08 878.986C-185.12 850.501 -175.68 822.556 -152 802.576C-128.32 782.731 -94.0796 774.361 -60.6396 772.741C-27.3596 771.121 5.92047 775.306 39.2005 776.926C149.12 782.191 260.801 757.486 353.441 707.401C425.601 668.521 487.201 614.386 567.201 588.331C603.041 576.721 641.761 571.321 680.001 572.266C714.241 573.211 751.041 588.061 784.001 579.016C848.801 561.196 874.401 501.256 888.801 450.766C902.721 402.301 916.8 348.706 964.32 319.276C990.72 302.941 1030.24 295.111 1054.56 318.736C1079.84 343.171 1060.64 369.901 1048.8 394.741C1025.76 443.071 1051.36 480.196 1064.48 526.366C1077.6 572.266 1052.16 606.421 1013.12 636.661C970.08 670.006 933.281 688.771 918.081 740.746C905.761 782.866 907.2 827.011 895.52 869.266C883.2 913.951 847.36 968.221 785.92 968.761C739.68 969.166 702.4 939.061 663.52 917.731C604.8 885.331 532.48 871.021 462.72 877.636C391.68 884.386 324.001 912.871 275.041 956.746C233.281 994.141 208.161 1042.88 163.841 1077.98C121.921 1111.19 66.5605 1133.06 8.64051 1134.14C-76.1595 1135.89 -161.76 1089.59 -187.52 1021.41C-201.6 984.421 -198.4 944.461 -194.24 905.716C-192.8 896.941 -191.68 887.896 -190.08 878.986Z" fill="#091638"/>
<path d="M2102.08 36.7208C1993.6 19.5758 1877.28 41.5808 1787.84 96.1208C1747.84 120.421 1712.32 152.146 1696.16 191.296C1684.32 219.781 1683.36 250.561 1672.96 279.451C1646.56 352.621 1554.24 404.461 1464.16 396.901C1416.48 392.986 1372.48 374.626 1328.48 358.831C1284.48 343.036 1236.96 329.131 1189.6 334.666C1142.24 340.201 1095.68 370.846 1093.28 411.211C1091.36 443.341 1116.16 471.691 1137.44 498.421C1158.72 525.151 1178.24 558.226 1164.96 588.466C1145.92 631.396 1077.76 637.741 1034.72 665.686C1007.36 683.506 989.761 713.206 995.521 741.961C1001.28 770.716 1033.76 795.151 1068.16 792.181C1106.56 788.806 1130.88 757.081 1149.28 728.461C1168.16 699.166 1186.88 669.196 1215.04 645.706C1243.2 622.351 1282.72 606.151 1321.76 611.146C1392.32 620.326 1426.08 688.636 1483.2 724.816C1538.24 759.511 1612.32 762.211 1680.8 758.026C1824.16 749.116 1965.12 715.231 2092.64 659.206L2102.08 36.7208Z" fill="#091638"/>
<g opacity="0.3">
<mask id="mask0_155_15" style="mask-type:luminance" maskUnits="userSpaceOnUse" x="-104" y="0" width="2024" height="1081">
<path d="M-104 1080L1920 1080L1920 0.000427246L-104 0.000427246L-104 1080Z" fill="white"/>
</mask>
<g mask="url(#mask0_155_15)">
<path d="M2016.48 460.35C1940.75 497.88 1839.04 485.19 1763.14 447.795C1687.24 410.4 1631.58 352.216 1577.61 295.516C1525.15 240.301 1459.2 179.686 1372.51 181.711C1291.55 183.736 1229.14 242.73 1202.83 304.02C1176.52 365.31 1175.17 431.865 1153.92 494.37C1132.66 557.01 1082.57 620.46 1003.63 635.175C933.131 648.27 862.291 619.11 790.777 609.795C631.049 588.87 478.406 667.71 356.628 753.165C234.851 838.62 117.122 937.845 -39.0635 972" stroke="#C7B6AE" stroke-miterlimit="10"/>
<path d="M2022.38 467.641C1947.83 505.576 1848.15 495.316 1772.42 460.891C1696.69 426.466 1639.84 371.791 1584.69 317.656C1540.16 273.781 1486.7 225.721 1420.92 210.871C1407.76 207.901 1394.1 206.28 1379.93 206.28C1300.32 206.28 1238.92 260.011 1209.74 317.386C1180.4 375.166 1174.33 440.641 1151.05 502.876C1148.52 509.761 1145.48 516.646 1142.28 523.531C1116.47 578.476 1068.91 630.451 998.743 644.356C980.527 648.001 962.142 648.811 943.758 647.866C890.965 645.031 838.004 627.346 784.874 619.921C728.202 611.956 672.373 615.736 618.4 628.561C534.741 648.406 456.311 689.986 386.989 736.291C374.171 744.796 361.689 753.436 349.545 762.211C295.403 801.09 242.104 842.671 184.926 879.255C114.086 924.615 36.6687 961.74 -48.508 976.185" stroke="#C7B6AE" stroke-miterlimit="10"/>
<path d="M2028.12 474.93C1954.91 513.135 1856.92 505.44 1781.36 474.12C1705.79 442.8 1647.6 391.5 1591.44 339.93C1545.9 298.08 1492.09 251.91 1427.32 236.115C1414.34 233.01 1400.84 231.12 1387.01 230.715C1308.75 228.69 1248.2 277.155 1216.15 330.75C1183.77 384.885 1173.14 449.415 1147.68 511.38C1144.81 518.265 1141.77 525.15 1138.4 531.9C1111.24 586.575 1063.34 638.685 993.345 653.4C975.129 657.18 956.745 658.26 938.191 657.585C885.061 655.425 831.763 637.875 778.295 629.91C721.455 621.405 665.457 623.835 610.978 635.985C526.307 654.885 447.709 697.41 378.724 744.66C366.074 753.3 353.593 762.21 341.617 771.12C287.813 810.81 234.683 853.065 176.999 889.515C105.484 934.74 25.3674 970.11 -58.6286 980.235" stroke="#C7B6AE" stroke-miterlimit="10"/>
<path d="M2034.02 482.221C1962 520.831 1866.03 515.431 1790.63 487.216C1715.24 459.001 1655.87 411.211 1598.35 362.071C1551.8 322.381 1497.83 277.831 1433.73 261.361C1420.92 258.121 1407.76 255.961 1394.1 255.286C1317.19 251.236 1257.65 294.436 1222.73 344.116C1187.31 394.741 1171.96 458.191 1144.47 519.886C1141.43 526.771 1138.06 533.521 1134.52 540.406C1106.01 594.811 1057.94 647.191 988.116 662.581C969.9 666.631 951.516 667.981 932.794 667.441C879.158 665.956 825.69 648.541 772.054 640.036C715.214 630.991 658.879 632.071 604.062 643.681C518.548 661.636 439.781 705.106 371.134 753.166C358.484 761.941 346.171 770.986 334.196 780.031C280.56 820.396 227.767 863.326 169.408 899.775C97.219 944.865 14.2351 978.48 -68.5803 984.285" stroke="#C7B6AE" stroke-miterlimit="10"/>
<path d="M2039.75 489.375C1969.08 528.39 1874.97 525.42 1799.74 500.175C1724.52 474.93 1663.8 430.65 1605.27 384.075C1557.7 346.41 1503.39 303.616 1440.31 286.471C1427.66 283.096 1414.67 280.666 1401.35 279.721C1325.96 273.781 1267.09 311.716 1229.48 357.346C1190.85 404.46 1171.12 466.83 1141.43 528.12C1138.23 534.87 1134.69 541.755 1130.98 548.505C1101.12 602.64 1052.88 655.155 983.057 671.49C964.841 675.81 946.456 677.43 927.565 677.025C873.592 676.215 819.787 658.935 765.814 649.755C708.805 640.17 652.301 639.9 596.979 650.97C510.621 667.98 431.517 712.53 363.375 761.4C350.894 770.445 338.581 779.625 326.606 788.805C273.307 829.98 220.852 873.585 161.819 909.9C88.9546 954.855 3.27193 986.85 -78.3627 988.2" stroke="#C7B6AE" stroke-miterlimit="10"/>
<path d="M2045.49 496.666C1976 535.951 1883.74 535.546 1808.68 513.271C1733.62 491.131 1671.72 450.226 1611.85 406.216C1563.44 370.576 1508.79 329.67 1446.38 311.58C1434.07 308.07 1421.25 305.506 1408.1 304.021C1334.05 296.191 1275.86 328.861 1235.72 370.441C1193.72 414.046 1169.6 475.336 1137.89 536.356C1134.35 543.106 1130.64 549.856 1126.76 556.606C1095.56 610.471 1046.98 663.121 977.491 680.266C959.275 684.721 940.721 686.61 921.831 686.61C867.52 686.34 813.547 669.33 759.236 659.61C702.058 649.485 645.386 647.865 589.557 658.26C502.188 674.325 422.915 719.82 355.279 769.635C342.798 778.815 330.654 788.13 318.679 797.58C265.549 839.431 213.43 883.711 153.722 920.026C80.1838 964.981 -8.3661 995.085 -88.6514 992.115" stroke="#A19585" stroke-miterlimit="10"/>
<path d="M2051.39 503.955C1983.25 543.645 1892.84 545.535 1817.96 526.5C1743.07 507.33 1679.82 469.935 1618.93 428.49C1569.51 395.01 1514.53 355.725 1453.13 336.96C1440.99 333.315 1428.51 330.48 1415.52 328.725C1342.82 318.87 1285.14 346.41 1242.63 384.075C1197.26 424.17 1168.93 484.38 1135.03 545.13C1131.31 551.88 1127.44 558.63 1123.39 565.245C1090.83 618.84 1042.09 671.76 972.599 689.715C954.383 694.44 935.83 696.6 916.771 696.735C861.954 697.14 807.812 680.265 753.164 670.005C695.817 659.34 638.977 656.505 582.811 666.225C494.598 681.345 415.156 727.785 347.689 778.545C335.377 787.86 323.232 797.31 311.426 806.895C258.633 849.555 206.684 894.51 146.47 930.825C72.2566 975.645 -18.9921 1004.13 -98.0968 996.705" stroke="#C7B6AE" stroke-miterlimit="10"/>
<path d="M2057.13 511.245C1990.17 551.34 1901.78 555.66 1827.06 539.595C1752.35 523.53 1687.91 489.51 1625.85 450.63C1575.41 419.175 1520.26 381.645 1459.54 362.205C1447.56 358.425 1435.25 355.32 1422.6 353.295C1351.26 341.415 1294.08 363.69 1249.21 397.44C1200.3 434.025 1167.75 493.155 1131.82 553.5C1127.77 560.115 1123.72 566.865 1119.51 573.48C1085.61 626.805 1036.69 679.86 967.202 698.625C948.986 703.485 930.433 705.915 911.205 706.32C856.051 707.4 801.571 690.66 746.586 679.86C689.071 668.655 632.061 664.47 575.389 673.515C486.333 687.69 406.554 735.075 339.593 786.645C327.281 796.095 315.305 805.815 303.499 815.535C250.875 858.87 199.263 904.5 138.374 940.815C63.3174 985.5 -30.63 1012.23 -108.554 1000.49" stroke="#C7B6AE" stroke-miterlimit="10"/>
<path d="M2063.03 518.535C1997.25 558.9 1910.72 565.785 1836.17 552.69C1761.62 539.595 1695.84 509.085 1632.59 472.77C1581.32 443.475 1525.66 407.565 1465.78 387.315C1453.97 383.265 1442 380.025 1429.69 377.595C1359.69 363.69 1303.02 380.7 1255.79 410.535C1203.34 443.61 1166.73 501.795 1128.78 561.735C1124.57 568.35 1120.35 574.965 1115.97 581.58C1080.71 634.5 1031.63 687.96 962.311 707.4C944.095 712.53 925.542 715.23 906.145 715.77C850.654 717.525 795.837 700.785 740.683 689.58C682.999 677.835 625.821 672.3 568.812 680.805C478.912 694.035 398.964 742.365 332.341 794.88C320.197 804.465 308.222 814.32 296.415 824.175C244.128 868.32 192.685 914.625 131.29 950.805C55.559 995.355 -41.0871 1020.47 -117.83 1004.13" stroke="#C7B6AE" stroke-miterlimit="10"/>
<path d="M2068.76 525.825C2004.33 566.595 1919.66 575.775 1845.28 565.785C1770.9 555.795 1703.94 528.66 1639.51 494.91C1587.22 467.64 1531.39 433.62 1472.36 412.56C1460.72 408.375 1448.91 404.865 1436.94 402.165C1368.29 386.235 1311.79 397.98 1262.54 423.9C1206.37 453.465 1165.72 510.57 1125.75 570.24C1121.36 576.855 1116.81 583.47 1112.26 590.085C1075.82 642.735 1026.24 696.33 957.082 716.715C938.866 722.115 920.144 725.085 900.747 725.895C844.919 728.19 789.765 711.72 734.274 699.84C676.59 687.555 619.074 680.67 561.559 688.635C470.647 700.92 390.531 750.195 324.414 803.655C312.27 813.375 300.463 823.5 288.656 833.49C236.538 878.445 185.432 925.29 123.363 961.47C46.9567 1006.02 -52.5566 1029.24 -127.951 1008.59" stroke="#A19585" stroke-miterlimit="10"/>
<path d="M2074.67 533.115C2011.42 574.29 1928.77 585.9 1854.56 579.015C1780.34 572.13 1712.03 548.37 1646.42 517.185C1593.12 491.94 1536.96 459.675 1478.77 437.805C1467.3 433.485 1455.83 429.84 1444.02 426.6C1376.72 408.645 1320.56 415.125 1269.12 437.265C1209.24 463.05 1164.71 519.345 1122.54 578.61C1117.82 585.225 1113.27 591.705 1108.38 598.32C1070.59 650.7 1020.84 704.43 951.853 725.625C933.806 731.16 914.915 734.4 895.35 735.48C839.015 738.45 783.692 722.115 728.032 709.695C670.18 696.87 612.496 688.635 554.475 695.925C462.72 707.265 382.434 757.62 316.486 811.755C304.342 821.745 292.704 831.87 281.066 842.13C229.285 887.76 178.348 935.415 115.772 971.46C38.6918 1015.88 -63.5201 1037.34 -137.733 1012.37" stroke="#A19585" stroke-miterlimit="10"/>
<path d="M2080.4 540.405C2018.5 581.85 1937.71 596.025 1863.5 592.11C1789.45 588.195 1719.96 567.945 1653.17 539.325C1598.86 516.24 1542.52 485.595 1485.18 463.05C1474.05 458.595 1462.58 454.68 1451.11 451.17C1385.33 431.325 1329.16 432.135 1275.69 450.63C1211.94 472.635 1163.53 528.12 1119.34 587.115C1114.45 593.595 1109.56 600.21 1104.67 606.69C1065.53 658.8 1015.61 712.8 946.624 734.805C928.577 740.61 909.687 744.12 889.953 745.335C833.281 748.98 777.621 732.78 721.623 719.82C663.602 706.455 605.749 696.87 547.39 703.62C454.792 714.015 374.17 765.315 308.727 820.395C296.752 830.52 285.114 840.78 273.476 851.175C221.864 897.615 171.432 945.81 108.014 981.855C30.2584 1026.14 -74.6522 1045.98 -147.854 1016.55" stroke="#A19585" stroke-miterlimit="10"/>
<path d="M2086.14 547.695C2025.42 589.545 1946.48 606.15 1872.6 605.205C1798.73 604.395 1727.89 587.52 1660.08 561.6C1604.93 540.54 1548.09 511.785 1491.59 488.43C1480.62 483.84 1469.49 479.655 1458.19 475.875C1393.76 454.005 1337.76 449.28 1282.27 464.13C1214.64 482.22 1162.52 537.03 1116.13 595.755C1111.07 602.235 1105.85 608.715 1100.79 615.195C1060.31 667.035 1010.21 721.17 941.227 743.985C923.18 749.925 904.289 753.705 884.387 755.19C827.377 759.51 771.38 743.445 715.214 729.945C657.024 716.04 599.003 705.105 540.138 711.18C446.528 720.63 365.737 772.875 300.8 828.9C288.825 839.16 277.187 849.69 265.717 860.22C214.443 907.335 164.18 956.34 100.255 992.25C21.8253 1036.4 -85.9527 1054.49 -157.805 1020.74" stroke="#A19585" stroke-miterlimit="10"/>
<path d="M2092.04 554.85C2032.67 597.105 1955.59 616.005 1881.71 618.3C1808.01 620.46 1735.98 607.095 1666.83 583.74C1610.67 564.705 1553.66 537.84 1498 513.54C1487.2 508.815 1476.24 504.36 1465.27 500.175C1402.19 476.28 1346.36 465.885 1288.68 477.36C1217.17 491.4 1161.17 545.67 1112.76 603.99C1107.36 610.47 1102.14 616.95 1096.91 623.295C1055.08 674.865 1004.65 729.27 935.999 752.76C917.951 758.97 899.061 763.02 878.99 764.64C821.474 769.5 765.308 753.705 708.805 739.665C650.446 725.22 592.256 712.935 533.054 718.47C438.601 726.975 357.641 780.165 293.042 837.135C281.235 847.53 269.597 858.195 258.296 868.995C207.359 916.92 157.265 966.465 92.6655 1002.38C13.3922 1046.52 -96.9159 1062.86 -167.587 1024.65" stroke="#836155" stroke-miterlimit="10"/>
<path d="M2097.77 562.14C2039.58 604.8 1964.53 626.13 1890.82 631.395C1817.28 636.66 1743.91 626.67 1673.75 605.88C1616.57 589.005 1559.22 563.76 1504.41 538.785C1493.78 533.925 1483.15 529.2 1472.36 524.745C1410.63 498.825 1355.14 482.76 1295.26 490.725C1220.03 500.715 1160.16 554.445 1109.56 612.495C1103.99 618.84 1098.42 625.32 1093.03 631.8C1049.85 682.965 999.249 737.64 930.601 762.075C912.554 768.555 893.495 772.74 873.424 774.765C815.571 780.3 759.068 764.64 702.396 749.925C643.868 734.94 585.51 721.44 525.802 726.3C430.505 733.86 349.207 787.995 284.945 845.775C273.139 856.305 261.669 867.24 250.369 878.04C199.6 926.64 149.844 976.995 84.7382 1012.77C4.79018 1056.78 -108.385 1071.36 -177.876 1028.84" stroke="#836155" stroke-miterlimit="10"/>
<path d="M2103.68 569.431C2046.84 612.361 1973.47 636.256 1900.1 644.491C1826.73 652.726 1752.01 646.246 1680.66 628.021C1622.64 613.171 1564.79 589.816 1510.98 564.031C1500.53 559.036 1490.24 554.041 1479.78 549.181C1419.57 521.101 1364.24 499.366 1302.17 503.956C1223.24 509.761 1159.31 563.086 1106.69 620.866C1100.95 627.211 1095.22 633.691 1089.65 640.036C1045.13 690.931 994.357 745.74 925.71 770.985C907.663 777.6 888.603 782.19 868.363 784.35C810.173 790.56 753.333 774.9 696.323 759.781C637.796 744.256 579.1 729.406 519.055 733.591C422.915 740.206 341.448 795.285 277.524 854.01C265.886 864.81 254.416 875.745 243.116 886.815C192.684 936.225 143.096 987.12 77.485 1022.9C-3.13763 1066.77 -119.012 1079.73 -187.322 1032.75" stroke="#836155" stroke-miterlimit="10"/>
<path d="M2109.41 576.72C2053.75 620.055 1982.41 646.245 1909.04 657.585C1835.84 668.925 1759.94 665.82 1687.41 650.16C1628.38 637.335 1570.35 615.735 1517.22 589.14C1506.94 584.01 1496.82 578.745 1486.7 573.615C1427.83 543.51 1372.85 515.97 1308.58 517.185C1225.94 518.67 1158.13 571.725 1103.32 629.235C1097.24 635.58 1091.34 641.925 1085.61 648.27C1039.73 698.895 988.792 753.975 920.313 780.03C902.266 786.915 883.206 791.775 862.966 794.07C804.27 800.955 747.261 785.43 690.083 769.77C631.387 753.705 572.522 737.505 511.971 741.15C414.819 746.955 333.185 802.98 269.766 862.515C258.128 873.45 246.827 884.52 235.526 895.86C185.264 945.945 136.013 997.65 69.7273 1033.29C-11.57 1077.03 -130.311 1088.24 -197.272 1036.94" stroke="#836155" stroke-miterlimit="10"/>
<path d="M2115.32 584.01C2061.01 627.75 1991.51 656.37 1918.31 670.815C1845.28 685.26 1768.03 685.53 1694.49 672.435C1634.45 661.77 1576.09 641.79 1523.97 614.52C1514.02 609.255 1504.07 603.855 1494.12 598.32C1436.6 566.19 1381.95 532.845 1315.5 530.82C1229.31 528.12 1157.29 580.905 1100.45 637.875C1094.21 644.22 1088.14 650.43 1082.23 656.775C1035.17 707.13 983.731 762.345 915.421 789.21C897.374 796.23 878.315 801.36 857.906 803.925C798.873 811.35 741.526 796.095 684.011 779.895C625.146 763.29 566.113 745.74 505.055 748.71C407.06 753.57 325.088 810.54 262.176 871.02C250.706 882.09 239.406 893.43 228.274 904.77C178.348 955.665 129.435 1007.91 62.4741 1043.69C-19.4979 1087.43 -140.938 1096.74 -206.718 1041.12" stroke="#836155" stroke-miterlimit="10"/>
<path d="M2121.05 591.3C1971.61 715.23 1707.99 736.83 1530.21 639.63C1463.25 603.045 1402.7 550.26 1321.91 543.915C1222.39 536.085 1139.41 601.695 1078.18 664.875C1016.96 728.055 950.841 800.01 852.171 813.51C732.081 829.98 619.243 751.275 497.634 756.135C398.796 760.05 316.655 817.965 253.911 879.255C191.167 940.545 136.856 1010.21 54.2096 1053.68C-28.437 1097.28 -152.744 1104.98 -217.344 1044.9" stroke="#836155" stroke-miterlimit="10"/>
<path d="M2112.11 565.245C1965.88 691.74 1703.43 718.066 1522.79 624.916C1454.82 589.816 1392.92 538.516 1312.13 533.656C1232.18 528.796 1163.87 570.916 1109.56 620.866C1096.23 633.151 1083.92 645.841 1072.28 658.396C1037.37 696.196 1001.27 736.965 957.926 767.61C927.734 788.805 893.832 805.14 854.533 812.025C815.908 818.775 777.621 815.535 739.165 808.11C661.241 793.395 582.811 761.265 501.176 763.29C414.144 765.45 339.931 806.22 279.548 854.28C271.284 860.76 263.356 867.375 255.766 874.125C207.19 916.515 162.831 963.495 107.845 1002.24C90.1354 1014.66 71.4135 1026.27 51.0049 1036.53C-32.4851 1078.65 -154.769 1088.78 -218.187 1035.99" stroke="#836155" stroke-miterlimit="10"/>
<path d="M2103 539.325C1959.97 668.385 1698.71 699.57 1515.37 610.2C1446.38 576.585 1382.97 526.77 1302.17 523.395C1222.39 520.02 1154.93 563.22 1102.14 613.845C1089.32 626.265 1077.17 639.091 1066.04 651.916C1032.48 690.391 998.068 731.566 956.239 763.156C927.228 785.026 894.675 802.306 856.388 810.406C818.944 818.506 781.5 816.886 743.213 811.081C665.626 799.471 586.015 769.5 504.212 770.31C417.349 771.255 342.967 807.57 281.572 850.77C273.307 856.575 265.211 862.65 257.284 868.59C207.527 906.93 161.481 949.861 105.147 986.176C87.0993 997.921 68.0399 1008.86 47.4626 1018.85C-36.8708 1059.48 -157.13 1072.17 -219.537 1026.68" stroke="#836155" stroke-miterlimit="10"/>
<path d="M2094.06 513.405C1954.24 645.03 1693.99 681.075 1507.95 595.485C1438.12 563.355 1373.18 515.025 1292.39 513.135C1212.61 511.11 1146.16 555.39 1094.88 606.69C1082.4 619.245 1070.76 632.34 1059.97 645.435C1027.58 684.45 994.863 726.3 954.889 758.835C927.228 781.38 895.687 799.47 858.749 808.92C822.317 818.37 785.716 818.37 747.766 814.185C670.686 805.815 589.894 778.005 507.754 777.6C420.89 777.33 346.34 809.055 283.933 847.53C275.5 852.795 267.235 858.06 259.139 863.46C208.033 897.75 160.469 936.63 102.954 970.65C84.4003 981.585 65.0038 992.115 44.2577 1001.57C-40.9189 1040.72 -159.154 1055.84 -220.38 1017.77" stroke="#A19585" stroke-miterlimit="10"/>
<path d="M2084.96 487.35C1948.5 621.405 1689.26 662.31 1500.36 580.77C1429.52 549.99 1363.23 503.28 1282.44 502.875C1202.83 502.335 1137.05 547.56 1087.63 599.67C1075.49 612.495 1064.19 625.725 1053.9 638.955C1022.69 678.51 991.827 720.9 953.371 754.38C926.891 777.6 896.531 796.5 860.773 807.3C825.522 817.965 789.596 819.72 751.983 817.155C675.24 811.89 593.268 786.24 511.127 784.62C424.432 783.135 349.713 810.27 286.126 844.155C277.524 848.745 269.091 853.47 260.826 858.195C208.539 888.3 159.12 923.265 100.424 954.99C81.5332 965.25 61.7993 975.105 40.8847 984.285C-45.1353 1021.95 -161.347 1039.64 -221.561 1008.86" stroke="#836155" stroke-miterlimit="10"/>
<path d="M2076.02 461.43C1942.77 598.05 1684.71 643.815 1492.94 566.055C1421.08 536.76 1353.45 491.4 1272.66 492.48C1193.22 493.425 1128.28 539.73 1080.38 592.515C1068.57 605.475 1057.78 618.975 1047.82 632.34C1017.8 672.57 988.623 715.365 952.022 749.925C926.722 773.685 897.711 793.665 863.135 805.815C829.064 817.83 793.812 821.205 756.537 820.26C679.962 818.235 597.147 794.475 514.669 791.775C428.143 788.94 353.086 811.755 288.487 840.78C279.716 844.695 271.115 848.745 262.681 852.93C209.214 878.985 158.108 909.9 98.0624 939.33C78.8344 948.78 58.7632 958.095 37.5112 967.005C-49.3521 1003.19 -163.54 1023.3 -222.742 999.945" stroke="#C1A875" stroke-miterlimit="10"/>
<path d="M2067.08 435.376C1937.04 574.56 1680.16 625.186 1485.51 551.206C1412.82 523.396 1343.67 479.521 1262.71 482.086C1183.26 484.381 1119.34 531.766 1072.96 585.225C1061.66 598.455 1051.2 612.09 1041.58 625.725C1012.74 666.495 985.25 709.83 950.336 745.47C926.385 769.905 898.386 790.695 864.99 804.195C831.932 817.425 797.524 822.69 760.586 823.23C684.348 824.445 600.352 802.71 517.706 798.93C431.18 794.88 356.123 813.105 290.343 837.54C281.404 840.78 272.633 844.29 264.031 847.665C209.383 869.67 156.59 896.535 95.3644 923.535C75.6304 932.175 55.2217 941.085 33.9697 949.455C-53.737 984.15 -165.9 1006.83 -223.921 990.63" stroke="#C1A875" stroke-miterlimit="10"/>
<path d="M2057.97 409.455C1931.13 551.205 1675.43 606.555 1477.92 536.625C1404.22 510.3 1333.71 467.91 1252.75 471.96C1173.48 475.74 1110.4 524.071 1065.7 578.341C1054.74 591.706 1044.62 605.611 1035.51 619.381C1008.02 660.691 982.214 704.565 948.986 741.15C926.216 766.26 899.398 787.995 867.352 802.71C835.474 817.29 801.74 824.175 764.971 826.335C689.071 830.925 604.063 811.08 521.079 806.085C434.722 800.82 359.328 814.455 292.536 834.165C283.428 836.865 274.488 839.566 265.718 842.401C209.889 860.356 155.41 883.171 92.8342 907.876C72.7629 915.841 52.0169 924.076 30.5962 932.176C-57.9538 965.386 -168.093 990.63 -225.102 981.72" stroke="#C1A875" stroke-miterlimit="10"/>
<path d="M2049.03 383.536C1925.4 527.851 1670.88 588.06 1470.5 521.91C1395.95 497.07 1323.93 456.165 1242.97 461.7C1163.7 466.965 1101.63 516.375 1058.45 571.185C1047.82 584.82 1038.21 598.86 1029.44 612.9C1003.13 654.885 979.009 699.165 947.468 736.83C925.879 762.48 900.41 785.16 869.376 801.225C838.678 817.155 805.62 825.795 769.188 829.44C693.625 837.27 607.436 819.585 524.284 813.375C437.926 806.895 362.532 816.075 294.728 830.925C285.452 832.95 276.344 834.975 267.404 837.27C210.395 851.175 154.229 869.94 90.473 892.35C70.0644 899.505 48.981 907.2 27.223 914.895C-62.1703 946.62 -170.286 974.295 -226.114 972.81" stroke="#BCA17F" stroke-miterlimit="10"/>
<path d="M2039.92 357.48C1919.49 504.36 1666.16 569.43 1463.08 507.195C1387.52 483.84 1313.98 444.42 1233.02 451.44C1153.92 458.19 1092.52 508.545 1051.03 564.165C1040.74 577.935 1031.63 592.11 1023.2 606.42C998.068 648.945 975.635 693.765 945.95 732.375C925.71 758.7 901.253 782.325 871.399 799.605C841.714 816.885 809.499 827.145 773.404 832.41C698.179 843.48 610.978 827.82 527.488 820.395C441.299 812.7 365.737 817.29 296.752 827.55C287.307 828.9 278.03 830.385 268.922 831.87C210.563 841.725 152.879 856.44 87.7739 876.42C66.8592 882.9 45.6072 889.92 23.6806 897.345C-66.3875 927.72 -172.647 957.825 -227.464 963.63" stroke="#C7B6AE" stroke-miterlimit="10"/>
<path d="M2030.98 331.56C1913.93 481.005 1661.6 550.8 1455.66 492.48C1379.09 470.61 1304.2 432.675 1223.24 441.18C1144.13 449.28 1083.75 500.715 1043.78 557.145C1033.83 571.185 1025.05 585.495 1017.13 599.94C993.177 643.005 972.599 688.365 944.432 728.055C925.373 754.92 902.097 779.49 873.592 798.12C845.087 816.615 813.715 828.765 777.789 835.65C702.901 849.96 614.52 836.325 531.03 827.685C445.01 818.775 369.11 818.775 299.114 824.31C289.5 824.985 280.054 825.795 270.777 826.74C211.238 832.545 151.699 843.21 85.4127 860.895C64.1607 866.565 42.4028 873.18 20.3074 880.2C-70.6039 909.09 -174.84 941.625 -228.476 954.72" stroke="#C7B6AE" stroke-miterlimit="10"/>
<path d="M2022.04 305.505C1908.02 457.515 1656.88 532.17 1448.24 477.765C1370.82 457.38 1294.42 420.795 1213.46 430.785C1134.52 440.37 1074.98 492.885 1036.69 549.855C1027.25 564.03 1018.81 578.61 1011.22 593.325C988.454 637.065 969.563 682.83 943.083 723.465C925.204 751.005 903.277 776.52 875.785 796.365C848.461 816.21 817.763 829.98 782.175 838.485C707.624 856.17 618.231 844.56 534.403 834.705C448.383 824.58 372.483 820.125 301.306 820.8C291.692 820.935 281.909 821.07 272.464 821.34C211.744 823.095 150.518 829.71 83.0514 845.1C61.4621 850.095 39.3666 856.035 17.1026 862.65C-74.6521 890.055 -176.864 925.155 -229.488 945.54" stroke="#C7B6AE" stroke-miterlimit="10"/>
<path d="M2012.94 279.585C1902.29 434.16 1652.16 513.675 1440.65 463.05C1362.22 444.15 1284.46 409.05 1203.5 420.525C1124.57 431.595 1066.04 485.055 1029.27 542.835C1020.16 557.28 1012.24 571.995 1004.98 586.845C983.563 631.125 966.19 677.43 941.564 719.145C924.866 747.36 904.12 773.82 877.977 795.015C851.665 816.21 821.811 831.735 786.56 841.725C712.347 862.785 621.773 853.065 537.777 841.995C451.925 830.655 375.688 821.61 303.498 817.695C293.716 817.155 283.764 816.615 273.982 816.345C212.081 814.05 149.168 816.615 80.3524 829.71C58.257 833.895 35.9931 839.295 13.3918 845.64C-79.2062 871.56 -179.394 909.09 -231.006 936.9" stroke="#C7B6AE" stroke-miterlimit="10"/>
<path d="M2004 253.665C1896.56 410.671 1647.6 495.045 1433.23 448.335C1353.79 430.92 1274.68 397.305 1193.55 410.265C1114.79 422.685 1057.1 477.225 1021.85 535.68C1013.08 550.26 1005.49 565.245 998.743 580.23C978.503 625.05 962.817 671.896 939.878 714.691C924.361 743.446 904.964 770.85 879.833 793.395C854.701 815.94 825.522 833.085 790.608 844.695C716.732 868.995 625.146 861.3 540.813 849.15C454.961 836.73 378.724 823.095 305.354 814.32C295.403 813.105 285.452 812.025 275.332 810.945C212.25 804.6 147.651 803.115 77.654 813.78C55.2214 817.29 32.6201 822.15 9.85011 828.09C-83.5912 852.525 -181.755 892.62 -232.187 927.72" stroke="#C7B6AE" stroke-miterlimit="10"/>
<path d="M1994.89 227.61C1890.82 387.315 1643.05 476.415 1425.81 433.62C1345.52 417.69 1264.9 385.56 1183.77 400.005C1105 413.91 1048.16 469.395 1014.6 528.66C1006.16 543.51 999.08 558.63 992.671 573.885C973.611 619.38 959.612 666.63 938.529 710.37C924.361 739.8 906.145 768.15 882.025 791.91C858.075 815.805 829.57 834.705 794.993 847.8C721.455 875.475 628.688 869.94 544.186 856.305C458.503 842.805 381.929 824.445 307.715 810.945C297.595 809.055 287.476 807.3 277.187 805.68C212.925 795.285 146.639 789.75 75.2926 798.12C52.5226 800.82 29.4154 805.14 6.47676 810.675C-87.8079 833.625 -183.948 876.15 -233.367 918.54" stroke="#C7B6AE" stroke-miterlimit="10"/>
<path d="M1985.95 201.69C1884.92 363.96 1638.33 457.92 1418.39 418.905C1337.09 404.46 1255.12 373.815 1173.99 389.745C1095.39 405.135 1039.39 461.7 1007.51 521.64C999.586 536.625 992.839 552.015 986.767 567.405C968.888 613.44 956.576 661.23 937.179 706.05C924.192 736.02 907.156 765.45 884.386 790.425C861.616 815.67 833.786 836.325 799.547 850.905C726.346 881.955 632.399 878.31 547.728 863.46C462.045 848.745 385.47 825.795 310.076 807.705C299.788 805.275 289.499 802.845 279.042 800.55C213.599 785.97 145.627 776.52 72.9312 782.595C49.6552 784.62 26.3791 788.265 3.27175 793.53C-91.8563 814.995 -185.972 860.085 -234.211 909.765" stroke="#C7B6AE" stroke-miterlimit="10"/>
<path d="M1977.01 175.636C1879.18 340.471 1633.77 439.29 1410.8 404.055C1328.49 390.96 1245 361.8 1163.87 379.215C1085.27 395.955 1030.28 453.6 999.923 514.215C992.333 529.47 985.924 544.995 980.358 560.655C963.66 607.23 953.034 655.56 935.493 701.325C923.686 731.97 907.831 762.21 886.242 788.535C864.653 814.995 837.666 837.405 803.595 853.605C730.731 888.03 635.772 886.275 550.764 870.345C465.25 854.415 388.338 827.01 311.932 804.06C301.475 800.955 291.017 797.85 280.391 794.88C213.599 776.25 143.94 762.75 70.2327 766.395C46.6193 767.61 23.0061 770.715 -0.269881 775.575C-96.2412 795.555 -188.333 843.075 -235.56 900.18" stroke="#C7B6AE" stroke-miterlimit="10"/>
<path d="M1967.9 149.715C1873.45 317.115 1629.05 420.66 1403.37 389.341C1320.22 377.731 1235.21 350.055 1154.08 368.955C1075.65 387.18 1021.51 445.77 992.671 507.195C985.418 522.585 979.515 538.245 974.286 554.175C958.937 601.29 949.829 650.16 933.975 697.005C923.349 728.19 908.843 759.51 888.435 787.05C867.857 814.86 841.714 839.025 807.812 856.71C735.454 894.51 639.145 894.645 554.137 877.5C468.623 860.355 391.711 828.36 314.125 800.82C303.499 797.04 292.873 793.395 282.078 789.75C214.105 767.07 142.759 749.52 67.7025 750.87C43.7518 751.275 19.8013 753.975 -3.81202 758.43C-100.627 776.925 -190.695 827.01 -236.909 891.405" stroke="#C7B6AE" stroke-miterlimit="10"/>
<path d="M1958.96 123.795C1867.71 293.625 1624.5 402.03 1395.95 374.76C1311.79 364.635 1225.43 338.445 1144.3 358.83C1065.87 378.54 1012.74 438.21 985.418 500.175C958.094 562.14 951.516 628.695 932.625 692.685C913.735 756.675 879.158 821.745 812.197 859.815C740.176 900.855 642.856 903.15 557.51 884.655C472.165 866.295 395.084 829.71 316.317 797.445C237.718 765.18 153.723 736.155 65.3413 735.21C-59.3034 733.725 -181.924 793.26 -237.753 882.36" stroke="#C7B6AE" stroke-miterlimit="10"/>
</g>
</g>
<g opacity="0.5">
<mask id="mask1_155_15" style="mask-type:luminance" maskUnits="userSpaceOnUse" x="0" y="0" width="1920" height="1160">
<path d="M0.000366211 1160L1920 1160V0.000732422L0.000366211 0.000732422V1160Z" fill="white"/>
</mask>
<g mask="url(#mask1_155_15)">
<path d="M1593.6 611.9C1591.83 611.9 1590.4 613.199 1590.4 614.8C1590.4 616.402 1591.83 617.7 1593.6 617.7C1595.37 617.7 1596.8 616.402 1596.8 614.8C1596.8 613.199 1595.37 611.9 1593.6 611.9Z" fill="white"/>
<path d="M1630.4 611.901C1628.63 611.901 1627.2 613.199 1627.2 614.8C1627.2 616.402 1628.63 617.7 1630.4 617.7C1632.17 617.7 1633.6 616.402 1633.6 614.8C1633.6 613.199 1632.17 611.901 1630.4 611.901Z" fill="white"/>
<path d="M1667.2 611.901C1665.43 611.901 1664 613.199 1664 614.8C1664 616.402 1665.43 617.7 1667.2 617.7C1668.97 617.7 1670.4 616.402 1670.4 614.8C1670.4 613.199 1668.97 611.901 1667.2 611.901Z" fill="white"/>
<path d="M1704 611.901C1702.23 611.901 1700.8 613.199 1700.8 614.8C1700.8 616.402 1702.23 617.7 1704 617.7C1705.77 617.7 1707.2 616.402 1707.2 614.8C1707.2 613.199 1705.77 611.901 1704 611.901Z" fill="white"/>
<path d="M1740.8 611.9C1739.03 611.9 1737.6 613.199 1737.6 614.8C1737.6 616.402 1739.03 617.7 1740.8 617.7C1742.57 617.7 1744 616.402 1744 614.8C1744 613.199 1742.57 611.9 1740.8 611.9Z" fill="white"/>
<path d="M1593.6 648.15C1591.83 648.15 1590.4 649.449 1590.4 651.05C1590.4 652.652 1591.83 653.95 1593.6 653.95C1595.37 653.95 1596.8 652.652 1596.8 651.05C1596.8 649.449 1595.37 648.15 1593.6 648.15Z" fill="white"/>
<path d="M1630.4 648.15C1628.63 648.15 1627.2 649.449 1627.2 651.05C1627.2 652.652 1628.63 653.95 1630.4 653.95C1632.17 653.95 1633.6 652.652 1633.6 651.05C1633.6 649.449 1632.17 648.15 1630.4 648.15Z" fill="white"/>
<path d="M1667.2 648.15C1665.43 648.15 1664 649.449 1664 651.05C1664 652.652 1665.43 653.95 1667.2 653.95C1668.97 653.95 1670.4 652.652 1670.4 651.05C1670.4 649.449 1668.97 648.15 1667.2 648.15Z" fill="white"/>
<path d="M1704 648.15C1702.23 648.15 1700.8 649.449 1700.8 651.05C1700.8 652.652 1702.23 653.95 1704 653.95C1705.77 653.95 1707.2 652.652 1707.2 651.05C1707.2 649.449 1705.77 648.15 1704 648.15Z" fill="white"/>
<path d="M1740.8 648.15C1739.03 648.15 1737.6 649.449 1737.6 651.05C1737.6 652.652 1739.03 653.95 1740.8 653.95C1742.57 653.95 1744 652.652 1744 651.05C1744 649.449 1742.57 648.15 1740.8 648.15Z" fill="white"/>
<path d="M1593.6 684.4C1591.83 684.4 1590.4 685.699 1590.4 687.3C1590.4 688.902 1591.83 690.2 1593.6 690.2C1595.37 690.2 1596.8 688.902 1596.8 687.3C1596.8 685.699 1595.37 684.4 1593.6 684.4Z" fill="white"/>
<path d="M1630.4 684.4C1628.63 684.4 1627.2 685.699 1627.2 687.3C1627.2 688.902 1628.63 690.2 1630.4 690.2C1632.17 690.2 1633.6 688.902 1633.6 687.3C1633.6 685.699 1632.17 684.4 1630.4 684.4Z" fill="white"/>
<path d="M1667.2 684.4C1665.43 684.4 1664 685.699 1664 687.3C1664 688.902 1665.43 690.2 1667.2 690.2C1668.97 690.2 1670.4 688.902 1670.4 687.3C1670.4 685.699 1668.97 684.4 1667.2 684.4Z" fill="white"/>
<path d="M1704 684.4C1702.23 684.4 1700.8 685.699 1700.8 687.3C1700.8 688.902 1702.23 690.2 1704 690.2C1705.77 690.2 1707.2 688.902 1707.2 687.3C1707.2 685.699 1705.77 684.4 1704 684.4Z" fill="white"/>
<path d="M1740.8 684.4C1739.03 684.4 1737.6 685.699 1737.6 687.3C1737.6 688.902 1739.03 690.2 1740.8 690.2C1742.57 690.2 1744 688.902 1744 687.3C1744 685.699 1742.57 684.4 1740.8 684.4Z" fill="white"/>
<path d="M1593.6 720.65C1591.83 720.65 1590.4 721.949 1590.4 723.55C1590.4 725.152 1591.83 726.45 1593.6 726.45C1595.37 726.45 1596.8 725.152 1596.8 723.55C1596.8 721.949 1595.37 720.65 1593.6 720.65Z" fill="white"/>
<path d="M1630.4 720.65C1628.63 720.65 1627.2 721.949 1627.2 723.55C1627.2 725.152 1628.63 726.45 1630.4 726.45C1632.17 726.45 1633.6 725.152 1633.6 723.55C1633.6 721.949 1632.17 720.65 1630.4 720.65Z" fill="white"/>
<path d="M1667.2 720.65C1665.43 720.65 1664 721.949 1664 723.55C1664 725.152 1665.43 726.45 1667.2 726.45C1668.97 726.45 1670.4 725.152 1670.4 723.55C1670.4 721.949 1668.97 720.65 1667.2 720.65Z" fill="white"/>
<path d="M1704 720.65C1702.23 720.65 1700.8 721.949 1700.8 723.55C1700.8 725.152 1702.23 726.45 1704 726.45C1705.77 726.45 1707.2 725.152 1707.2 723.55C1707.2 721.949 1705.77 720.65 1704 720.65Z" fill="white"/>
<path d="M1740.8 720.65C1739.03 720.65 1737.6 721.949 1737.6 723.55C1737.6 725.152 1739.03 726.45 1740.8 726.45C1742.57 726.45 1744 725.152 1744 723.55C1744 721.949 1742.57 720.65 1740.8 720.65Z" fill="white"/>
<path d="M1593.6 756.9C1591.83 756.9 1590.4 758.199 1590.4 759.8C1590.4 761.402 1591.83 762.7 1593.6 762.7C1595.37 762.7 1596.8 761.402 1596.8 759.8C1596.8 758.199 1595.37 756.9 1593.6 756.9Z" fill="white"/>
<path d="M1630.4 756.9C1628.63 756.9 1627.2 758.199 1627.2 759.8C1627.2 761.402 1628.63 762.7 1630.4 762.7C1632.17 762.7 1633.6 761.402 1633.6 759.8C1633.6 758.199 1632.17 756.9 1630.4 756.9Z" fill="white"/>
<path d="M1667.2 756.9C1665.43 756.9 1664 758.199 1664 759.8C1664 761.402 1665.43 762.7 1667.2 762.7C1668.97 762.7 1670.4 761.402 1670.4 759.8C1670.4 758.199 1668.97 756.9 1667.2 756.9Z" fill="white"/>
<path d="M1704 756.9C1702.23 756.9 1700.8 758.199 1700.8 759.8C1700.8 761.402 1702.23 762.7 1704 762.7C1705.77 762.7 1707.2 761.402 1707.2 759.8C1707.2 758.199 1705.77 756.9 1704 756.9Z" fill="white"/>
<path d="M1740.8 756.9C1739.03 756.9 1737.6 758.199 1737.6 759.8C1737.6 761.402 1739.03 762.7 1740.8 762.7C1742.57 762.7 1744 761.402 1744 759.8C1744 758.199 1742.57 756.9 1740.8 756.9Z" fill="white"/>
<path d="M1593.6 793.15C1591.83 793.15 1590.4 794.449 1590.4 796.05C1590.4 797.652 1591.83 798.95 1593.6 798.95C1595.37 798.95 1596.8 797.652 1596.8 796.05C1596.8 794.449 1595.37 793.15 1593.6 793.15Z" fill="white"/>
<path d="M1630.4 793.15C1628.63 793.15 1627.2 794.449 1627.2 796.05C1627.2 797.652 1628.63 798.95 1630.4 798.95C1632.17 798.95 1633.6 797.652 1633.6 796.05C1633.6 794.449 1632.17 793.15 1630.4 793.15Z" fill="white"/>
<path d="M1667.2 793.15C1665.43 793.15 1664 794.449 1664 796.05C1664 797.652 1665.43 798.95 1667.2 798.95C1668.97 798.95 1670.4 797.652 1670.4 796.05C1670.4 794.449 1668.97 793.15 1667.2 793.15Z" fill="white"/>
<path d="M1704 793.15C1702.23 793.15 1700.8 794.449 1700.8 796.05C1700.8 797.652 1702.23 798.95 1704 798.95C1705.77 798.95 1707.2 797.652 1707.2 796.05C1707.2 794.449 1705.77 793.15 1704 793.15Z" fill="white"/>
<path d="M1740.8 793.15C1739.03 793.15 1737.6 794.449 1737.6 796.05C1737.6 797.652 1739.03 798.95 1740.8 798.95C1742.57 798.95 1744 797.652 1744 796.05C1744 794.449 1742.57 793.15 1740.8 793.15Z" fill="white"/>
<path d="M1593.6 829.4C1591.83 829.4 1590.4 830.699 1590.4 832.3C1590.4 833.902 1591.83 835.2 1593.6 835.2C1595.37 835.2 1596.8 833.902 1596.8 832.3C1596.8 830.699 1595.37 829.4 1593.6 829.4Z" fill="white"/>
<path d="M1630.4 829.4C1628.63 829.4 1627.2 830.699 1627.2 832.3C1627.2 833.902 1628.63 835.2 1630.4 835.2C1632.17 835.2 1633.6 833.902 1633.6 832.3C1633.6 830.699 1632.17 829.4 1630.4 829.4Z" fill="white"/>
<path d="M1667.2 829.4C1665.43 829.4 1664 830.699 1664 832.3C1664 833.902 1665.43 835.2 1667.2 835.2C1668.97 835.2 1670.4 833.902 1670.4 832.3C1670.4 830.699 1668.97 829.4 1667.2 829.4Z" fill="white"/>
<path d="M1704 829.4C1702.23 829.4 1700.8 830.699 1700.8 832.3C1700.8 833.902 1702.23 835.2 1704 835.2C1705.77 835.2 1707.2 833.902 1707.2 832.3C1707.2 830.699 1705.77 829.4 1704 829.4Z" fill="white"/>
<path d="M1740.8 829.4C1739.03 829.4 1737.6 830.699 1737.6 832.3C1737.6 833.902 1739.03 835.2 1740.8 835.2C1742.57 835.2 1744 833.902 1744 832.3C1744 830.699 1742.57 829.4 1740.8 829.4Z" fill="white"/>
<path d="M1593.6 865.65C1591.83 865.65 1590.4 866.949 1590.4 868.55C1590.4 870.152 1591.83 871.45 1593.6 871.45C1595.37 871.45 1596.8 870.152 1596.8 868.55C1596.8 866.949 1595.37 865.65 1593.6 865.65Z" fill="white"/>
<path d="M1630.4 865.65C1628.63 865.65 1627.2 866.949 1627.2 868.55C1627.2 870.152 1628.63 871.45 1630.4 871.45C1632.17 871.45 1633.6 870.152 1633.6 868.55C1633.6 866.949 1632.17 865.65 1630.4 865.65Z" fill="white"/>
<path d="M1667.2 865.65C1665.43 865.65 1664 866.949 1664 868.55C1664 870.152 1665.43 871.45 1667.2 871.45C1668.97 871.45 1670.4 870.152 1670.4 868.55C1670.4 866.949 1668.97 865.65 1667.2 865.65Z" fill="white"/>
<path d="M1704 865.65C1702.23 865.65 1700.8 866.949 1700.8 868.55C1700.8 870.152 1702.23 871.45 1704 871.45C1705.77 871.45 1707.2 870.152 1707.2 868.55C1707.2 866.949 1705.77 865.65 1704 865.65Z" fill="white"/>
<path d="M1740.8 865.65C1739.03 865.65 1737.6 866.949 1737.6 868.55C1737.6 870.152 1739.03 871.45 1740.8 871.45C1742.57 871.45 1744 870.152 1744 868.55C1744 866.949 1742.57 865.65 1740.8 865.65Z" fill="white"/>
<path d="M1593.6 901.9C1591.83 901.9 1590.4 903.199 1590.4 904.8C1590.4 906.402 1591.83 907.7 1593.6 907.7C1595.37 907.7 1596.8 906.402 1596.8 904.8C1596.8 903.199 1595.37 901.9 1593.6 901.9Z" fill="white"/>
<path d="M1630.4 901.9C1628.63 901.9 1627.2 903.199 1627.2 904.8C1627.2 906.402 1628.63 907.7 1630.4 907.7C1632.17 907.7 1633.6 906.402 1633.6 904.8C1633.6 903.199 1632.17 901.9 1630.4 901.9Z" fill="white"/>
<path d="M1667.2 901.9C1665.43 901.9 1664 903.199 1664 904.8C1664 906.402 1665.43 907.7 1667.2 907.7C1668.97 907.7 1670.4 906.402 1670.4 904.8C1670.4 903.199 1668.97 901.9 1667.2 901.9Z" fill="white"/>
<path d="M1704 901.9C1702.23 901.9 1700.8 903.199 1700.8 904.8C1700.8 906.402 1702.23 907.7 1704 907.7C1705.77 907.7 1707.2 906.402 1707.2 904.8C1707.2 903.199 1705.77 901.9 1704 901.9Z" fill="white"/>
<path d="M1740.8 901.9C1739.03 901.9 1737.6 903.199 1737.6 904.8C1737.6 906.402 1739.03 907.7 1740.8 907.7C1742.57 907.7 1744 906.402 1744 904.8C1744 903.199 1742.57 901.9 1740.8 901.9Z" fill="white"/>
<path d="M1593.6 938.15C1591.83 938.15 1590.4 939.449 1590.4 941.05C1590.4 942.652 1591.83 943.95 1593.6 943.95C1595.37 943.95 1596.8 942.652 1596.8 941.05C1596.8 939.449 1595.37 938.15 1593.6 938.15Z" fill="white"/>
<path d="M1630.4 938.15C1628.63 938.15 1627.2 939.449 1627.2 941.05C1627.2 942.652 1628.63 943.95 1630.4 943.95C1632.17 943.95 1633.6 942.652 1633.6 941.05C1633.6 939.449 1632.17 938.15 1630.4 938.15Z" fill="white"/>
<path d="M1667.2 938.15C1665.43 938.15 1664 939.449 1664 941.05C1664 942.652 1665.43 943.95 1667.2 943.95C1668.97 943.95 1670.4 942.652 1670.4 941.05C1670.4 939.449 1668.97 938.15 1667.2 938.15Z" fill="white"/>
<path d="M1704 938.15C1702.23 938.15 1700.8 939.449 1700.8 941.05C1700.8 942.652 1702.23 943.95 1704 943.95C1705.77 943.95 1707.2 942.652 1707.2 941.05C1707.2 939.449 1705.77 938.15 1704 938.15Z" fill="white"/>
<path d="M1740.8 938.15C1739.03 938.15 1737.6 939.449 1737.6 941.05C1737.6 942.652 1739.03 943.95 1740.8 943.95C1742.57 943.95 1744 942.652 1744 941.05C1744 939.449 1742.57 938.15 1740.8 938.15Z" fill="white"/>
<path d="M1593.6 974.4C1591.83 974.4 1590.4 975.699 1590.4 977.3C1590.4 978.902 1591.83 980.2 1593.6 980.2C1595.37 980.2 1596.8 978.902 1596.8 977.3C1596.8 975.699 1595.37 974.4 1593.6 974.4Z" fill="white"/>
<path d="M1630.4 974.4C1628.63 974.4 1627.2 975.699 1627.2 977.3C1627.2 978.902 1628.63 980.2 1630.4 980.2C1632.17 980.2 1633.6 978.902 1633.6 977.3C1633.6 975.699 1632.17 974.4 1630.4 974.4Z" fill="white"/>
<path d="M1667.2 974.4C1665.43 974.4 1664 975.699 1664 977.3C1664 978.902 1665.43 980.2 1667.2 980.2C1668.97 980.2 1670.4 978.902 1670.4 977.3C1670.4 975.699 1668.97 974.4 1667.2 974.4Z" fill="white"/>
<path d="M1704 974.4C1702.23 974.4 1700.8 975.699 1700.8 977.3C1700.8 978.902 1702.23 980.2 1704 980.2C1705.77 980.2 1707.2 978.902 1707.2 977.3C1707.2 975.699 1705.77 974.4 1704 974.4Z" fill="white"/>
<path d="M1740.8 974.4C1739.03 974.4 1737.6 975.699 1737.6 977.3C1737.6 978.902 1739.03 980.2 1740.8 980.2C1742.57 980.2 1744 978.902 1744 977.3C1744 975.699 1742.57 974.4 1740.8 974.4Z" fill="white"/>
</g>
</g>
</svg>
