<svg width="86" height="86" viewBox="0 0 86 86" fill="none" xmlns="http://www.w3.org/2000/svg">
<g clip-path="url(#clip0_43_338)">
<path fill-rule="evenodd" clip-rule="evenodd" d="M8.0625 21.5C8.0625 14.0838 14.0838 8.0625 21.5 8.0625H64.5C71.9162 8.0625 77.9375 14.0838 77.9375 21.5V64.5C77.9375 71.9162 71.9162 77.9375 64.5 77.9375H21.5C14.0838 77.9375 8.0625 71.9162 8.0625 64.5V21.5ZM13.4375 24.1875C13.4375 18.2548 18.2548 13.4375 24.1875 13.4375H61.8125C67.7452 13.4375 72.5625 18.2548 72.5625 24.1875V61.8125C72.5625 67.7452 67.7452 72.5625 61.8125 72.5625H24.1875C18.2548 72.5625 13.4375 67.7452 13.4375 61.8125V24.1875ZM43 24.1875C32.6168 24.1875 24.1875 32.6168 24.1875 43C24.1875 53.3832 32.6168 61.8125 43 61.8125C53.3832 61.8125 61.8125 53.3832 61.8125 43C61.8125 32.6168 53.3832 24.1875 43 24.1875ZM43 29.5625C35.5838 29.5625 29.5625 35.5838 29.5625 43C29.5625 50.4162 35.5838 56.4375 43 56.4375C50.4162 56.4375 56.4375 50.4162 56.4375 43C56.4375 35.5838 50.4162 29.5625 43 29.5625ZM63.1562 18.8125C60.931 18.8125 59.125 20.6185 59.125 22.8438C59.125 25.069 60.931 26.875 63.1562 26.875C65.3815 26.875 67.1875 25.069 67.1875 22.8438C67.1875 20.6185 65.3815 18.8125 63.1562 18.8125Z" fill="#A19585"/>
<path fill-rule="evenodd" clip-rule="evenodd" d="M38.4675 8.0625L43.8425 13.4375H61.8125C67.7452 13.4375 72.5625 18.2548 72.5625 24.1875V42.1575L77.9375 47.5325V21.5C77.9375 14.0838 71.9162 8.0625 64.5 8.0625H38.4675Z" fill="#BCA17F"/>
<path fill-rule="evenodd" clip-rule="evenodd" d="M8.0625 38.4675V64.5C8.0625 71.9162 14.0838 77.9375 21.5 77.9375H47.5325L42.1575 72.5625H24.1875C18.2548 72.5625 13.4375 67.7452 13.4375 61.8125V43.8425L8.0625 38.4675Z" fill="#E4DCD9"/>
</g>
<defs>
<clipPath id="clip0_43_338">
<rect width="86" height="86" fill="white"/>
</clipPath>
</defs>
</svg>
