<svg width="77" height="77" viewBox="0 0 77 77" fill="none" xmlns="http://www.w3.org/2000/svg">
<g clip-path="url(#clip0_43_352)">
<path d="M13.475 77L63.525 77C70.967 77 77 70.967 77 63.525L77 13.475C77 6.03297 70.967 0 63.525 0L13.475 0C6.03297 0 0 6.03297 0 13.475L0 63.525C0 70.967 6.03297 77 13.475 77Z" fill="#C7B6AE"/>
<path d="M67.8562 34.1687C67.8562 23.5812 55.3437 12.0312 38.9812 12.0312C23.0398 12.0312 10.1062 21.4156 10.1062 34.1687C10.1062 45.9353 20.1884 55.6566 34.3732 57.0883C34.8053 57.1239 35.2237 57.2573 35.5967 57.4782C35.9698 57.6991 36.2878 58.0018 36.5268 58.3636C36.8677 58.8998 37.0511 59.5209 37.0562 60.1562C37.0231 61.4616 36.8782 62.7617 36.6231 64.0423C36.5838 64.2159 36.5934 64.397 36.6508 64.5654C36.7082 64.7339 36.8112 64.8831 36.9483 64.9965C37.0854 65.11 37.2513 65.1832 37.4275 65.208C37.6037 65.2328 37.7834 65.2083 37.9465 65.1372C44.7442 62.1294 67.8562 49.7612 67.8562 34.1687Z" fill="white"/>
<path d="M28.3938 39.4626H24.0625V29.3563C24.0625 28.9734 23.9104 28.6062 23.6397 28.3355C23.3689 28.0647 23.0017 27.9126 22.6188 27.9126C22.2359 27.9126 21.8687 28.0647 21.5979 28.3355C21.3272 28.6062 21.175 28.9734 21.175 29.3563V40.9063C21.175 41.2893 21.3272 41.6565 21.5979 41.9272C21.8687 42.198 22.2359 42.3501 22.6188 42.3501H28.3938C28.7767 42.3501 29.1439 42.198 29.4147 41.9272C29.6854 41.6565 29.8375 41.2893 29.8375 40.9063C29.8375 40.5234 29.6854 40.1562 29.4147 39.8855C29.1439 39.6147 28.7767 39.4626 28.3938 39.4626Z" fill="#C7B6AE"/>
<path d="M32.2438 27.9126C31.8609 27.9126 31.4937 28.0647 31.2229 28.3355C30.9522 28.6062 30.8 28.9734 30.8 29.3563V40.9063C30.8 41.2893 30.9522 41.6565 31.2229 41.9272C31.4937 42.198 31.8609 42.3501 32.2438 42.3501C32.6267 42.3501 32.9939 42.198 33.2647 41.9272C33.5354 41.6565 33.6875 41.2893 33.6875 40.9063V29.3563C33.6875 28.9734 33.5354 28.6062 33.2647 28.3355C32.9939 28.0647 32.6267 27.9126 32.2438 27.9126Z" fill="#C7B6AE"/>
<path d="M45.7188 27.9126C45.5292 27.9126 45.3414 27.9499 45.1663 28.0225C44.9911 28.0951 44.8319 28.2014 44.6979 28.3355C44.5638 28.4695 44.4575 28.6287 44.3849 28.8038C44.3124 28.979 44.275 29.1668 44.275 29.3563V36.5751L38.2594 28.4901C38.0776 28.2477 37.8241 28.0686 37.5349 27.9783C37.2456 27.8879 36.9353 27.8909 36.6478 27.9867C36.3604 28.0825 36.1103 28.2664 35.9332 28.5122C35.756 28.758 35.6606 29.0533 35.6606 29.3563V40.9063C35.722 41.2381 35.8976 41.5379 36.1569 41.7537C36.4162 41.9695 36.743 42.0876 37.0803 42.0876C37.4177 42.0876 37.7444 41.9695 38.0038 41.7537C38.2631 41.5379 38.4387 41.2381 38.5 40.9063V33.6876L44.5156 41.7726C44.6542 41.9593 44.8362 42.1095 45.0458 42.2101C45.2554 42.3107 45.4864 42.3588 45.7188 42.3501C45.874 42.3496 46.0282 42.3252 46.176 42.2779C46.4636 42.1819 46.7137 41.9977 46.8908 41.7515C47.0679 41.5053 47.163 41.2096 47.1625 40.9063V29.3563C47.1625 29.1668 47.1252 28.979 47.0526 28.8038C46.9801 28.6287 46.8737 28.4695 46.7397 28.3355C46.6056 28.2014 46.4464 28.0951 46.2713 28.0225C46.0961 27.9499 45.9084 27.9126 45.7188 27.9126Z" fill="#C7B6AE"/>
<path d="M56.3062 36.5751C56.4957 36.5751 56.6835 36.5378 56.8587 36.4652C57.0338 36.3926 57.193 36.2863 57.327 36.1522C57.4611 36.0182 57.5675 35.859 57.64 35.6838C57.7126 35.5087 57.7499 35.3209 57.7499 35.1313C57.7499 34.9418 57.7126 34.754 57.64 34.5788C57.5675 34.4037 57.4611 34.2445 57.327 34.1105C57.193 33.9764 57.0338 33.8701 56.8587 33.7975C56.6835 33.7249 56.4957 33.6876 56.3062 33.6876H51.9749V30.8001H56.3062C56.6891 30.8001 57.0563 30.648 57.327 30.3772C57.5978 30.1065 57.7499 29.7393 57.7499 29.3563C57.7499 28.9734 57.5978 28.6062 57.327 28.3355C57.0563 28.0647 56.6891 27.9126 56.3062 27.9126H50.5312C50.1482 27.9126 49.781 28.0647 49.5103 28.3355C49.2395 28.6062 49.0874 28.9734 49.0874 29.3563V40.9063C49.0874 41.2893 49.2395 41.6565 49.5103 41.9272C49.781 42.198 50.1482 42.3501 50.5312 42.3501H56.3062C56.6891 42.3501 57.0563 42.198 57.327 41.9272C57.5978 41.6565 57.7499 41.2893 57.7499 40.9063C57.7499 40.5234 57.5978 40.1562 57.327 39.8855C57.0563 39.6147 56.6891 39.4626 56.3062 39.4626H51.9749V36.5751H56.3062Z" fill="#C7B6AE"/>
</g>
<defs>
<clipPath id="clip0_43_352">
<rect width="77" height="77" fill="white"/>
</clipPath>
</defs>
</svg>
