<svg width="101" height="101" viewBox="0 0 101 101" fill="none" xmlns="http://www.w3.org/2000/svg">
<path d="M91.5312 78.9062H59.9688V80.4844H41.0312V78.9062H9.46875C8.59605 78.9062 7.89062 79.6117 7.89062 80.4844C7.89062 81.3571 8.58184 82.2156 9.43245 82.405L19.0117 84.5354C20.7129 84.9126 23.5062 85.2188 25.25 85.2188H75.75C77.4922 85.2188 80.284 84.9126 81.9852 84.5338L91.5675 82.4034C92.4197 82.2156 93.1094 81.3571 93.1094 80.4844C93.1094 79.6117 92.404 78.9062 91.5312 78.9062ZM91.2267 80.8631L81.6443 82.9936C80.0646 83.3455 77.3644 83.6406 75.75 83.6406H25.25C23.6356 83.6406 20.9354 83.3439 19.3541 82.9936L9.77491 80.8631C9.64392 80.8363 9.46875 80.6154 9.46875 80.4844H39.4531V82.0625H41.0312H59.9688H61.5469V80.4844H91.5312C91.5312 80.6154 91.3529 80.8363 91.2267 80.8631Z" fill="#E4DCD9"/>
<path d="M83.6406 25.25H17.3594C16.4867 25.25 15.7812 25.9554 15.7812 26.8281V47.3438V74.1719H85.2188V47.3438V26.8281C85.2188 25.9554 84.5133 25.25 83.6406 25.25ZM83.6406 72.5938H17.3594V47.3438V26.8281H82.3466H83.6406V47.3438V72.5938Z" fill="#E4DCD9"/>
<path d="M88.375 26.8281C88.375 24.2242 86.2445 22.0938 83.6406 22.0938H17.3594C14.7555 22.0938 12.625 24.2242 12.625 26.8281V77.3281H88.375V26.8281ZM86.7969 75.75H14.2031V26.8281C14.2031 25.0859 15.6171 23.6719 17.3594 23.6719H83.6406C85.3829 23.6719 86.7969 25.0859 86.7969 26.8281V75.75Z" fill="#E4DCD9"/>
<path d="M25.25 67.8594H22.0938V69.4375H25.25V67.8594Z" fill="#E4DCD9"/>
<path d="M25.25 63.125H22.0938V64.7031H25.25V63.125Z" fill="#E4DCD9"/>
<path d="M25.25 58.3906H22.0938V59.9688H25.25V58.3906Z" fill="#E4DCD9"/>
<path d="M25.25 53.6562H22.0938V55.2344H25.25V53.6562Z" fill="#E4DCD9"/>
<path d="M25.25 48.9219H22.0938V50.5H25.25V48.9219Z" fill="#E4DCD9"/>
<path d="M25.25 44.1875H22.0938V45.7656H25.25V44.1875Z" fill="#E4DCD9"/>
<path d="M25.25 39.4531H22.0938V41.0312H25.25V39.4531Z" fill="#E4DCD9"/>
<path d="M25.25 34.7188H22.0938V36.2969H25.25V34.7188Z" fill="#E4DCD9"/>
<path d="M25.25 29.9844H22.0938V31.5625H25.25V29.9844Z" fill="#E4DCD9"/>
<path d="M41.0312 58.3906H28.4062V59.9688H41.0312V58.3906Z" fill="#E4DCD9"/>
<path d="M45.7656 58.3906H42.6094V59.9688H45.7656V58.3906Z" fill="#E4DCD9"/>
<path d="M59.9688 67.8594H44.1875V69.4375H59.9688V67.8594Z" fill="#E4DCD9"/>
<path d="M42.6094 67.8594H39.4531V69.4375H42.6094V67.8594Z" fill="#E4DCD9"/>
<path d="M37.875 67.8594H28.4062V69.4375H37.875V67.8594Z" fill="#E4DCD9"/>
<path d="M47.3438 63.125H34.7188V64.7031H47.3438V63.125Z" fill="#E4DCD9"/>
<path d="M74.1719 58.3906H61.5469V59.9688H74.1719V58.3906Z" fill="#E4DCD9"/>
<path d="M59.9688 58.3906H47.3438V59.9688H59.9688V58.3906Z" fill="#E4DCD9"/>
<path d="M69.4375 48.9219H56.8125V50.5H69.4375V48.9219Z" fill="#E4DCD9"/>
<path d="M55.2344 48.9219H52.0781V50.5H55.2344V48.9219Z" fill="#E4DCD9"/>
<path d="M31.5625 44.1875H28.4062V45.7656H31.5625V44.1875Z" fill="#E4DCD9"/>
<path d="M44.1875 48.9219H37.875V50.5H44.1875V48.9219Z" fill="#E4DCD9"/>
<path d="M34.7188 39.4531H28.4062V41.0312H34.7188V39.4531Z" fill="#E4DCD9"/>
<path d="M42.6094 39.4531H36.2969V41.0312H42.6094V39.4531Z" fill="#E4DCD9"/>
<path d="M64.7031 39.4531H44.1875V41.0312H64.7031V39.4531Z" fill="#E4DCD9"/>
<path d="M56.8125 34.7188H50.5V36.2969H56.8125V34.7188Z" fill="#E4DCD9"/>
<path d="M48.9219 34.7188H42.6094V36.2969H48.9219V34.7188Z" fill="#E4DCD9"/>
<path d="M61.5469 34.7188H58.3906V36.2969H61.5469V34.7188Z" fill="#E4DCD9"/>
<path d="M66.2812 53.6562H58.3906V55.2344H66.2812V53.6562Z" fill="#E4DCD9"/>
<path d="M56.8125 53.6562H50.5V55.2344H56.8125V53.6562Z" fill="#E4DCD9"/>
<path d="M45.7656 53.6562H28.4062V55.2344H45.7656V53.6562Z" fill="#E4DCD9"/>
<path d="M41.0312 34.7188H28.4062V36.2969H41.0312V34.7188Z" fill="#E4DCD9"/>
<path d="M31.5625 29.9844H28.4062V31.5625H31.5625V29.9844Z" fill="#E4DCD9"/>
</svg>
