<svg width="58" height="58" viewBox="0 0 58 58" fill="none" xmlns="http://www.w3.org/2000/svg">
<path d="M37.1499 21.5195C36.5163 25.5197 32.7599 28.2489 28.7597 27.6154C24.7594 26.9818 22.0302 23.2253 22.6638 19.2251C23.2974 15.2249 27.0538 12.4957 31.054 13.1293C35.0543 13.7628 37.7835 17.5193 37.1499 21.5195Z" fill="#091638" stroke="#F2F2F2" stroke-width="2"/>
<path d="M41.626 46.5277L10.6784 41.6261L11.135 38.7435C11.1567 38.716 11.1813 38.6854 11.2087 38.6519C11.3562 38.4715 11.5863 38.2073 11.9027 37.892C12.5358 37.2611 13.5115 36.4284 14.8608 35.6512C17.5442 34.1057 21.7551 32.7496 27.7948 33.7061C33.8344 34.6627 37.4202 37.2537 39.4946 39.5528C40.5377 40.7089 41.2084 41.8024 41.6155 42.5981C41.819 42.9957 41.9562 43.3181 42.0408 43.5352C42.0565 43.5756 42.0704 43.6123 42.0826 43.6452L41.626 46.5277ZM11.0093 38.9097C11.0091 38.9101 11.0091 38.9101 11.0094 38.9096L11.0093 38.9097Z" fill="#091638" stroke="#E4DCD9" stroke-width="2"/>
</svg>
